<svg xmlns="http://www.w3.org/2000/svg" viewBox="0 0 64 64" role="img" aria-label="PT Clinic favicon">
  <rect x="2" y="2" width="60" height="60" rx="14" fill="none"/>
  <path fill="#13ecec" d="m18 56-.667-5.867 7.6-20.933q1 .933 2.167 1.567T29.6 31.7L22.267 51.833 18 56Zm28 0-4.267-4.133L34.4 31.733q1.333-.333 2.5-.967t2.2-1.567l7.6 20.934L46 56ZM26.333 27q-2.333-2.333-2.333-5.667 0-2.6 1.5-4.633t3.833-2.834V8h5.334v5.866q2.333.801 3.833 2.834Q40 18.732 40 21.333q0 3.333-2.333 5.667t-5.667 2.333q-3.333 0-5.667-2.333Zm7.567-3.767q.767-.766.767-1.9 0-1.133-.767-1.9Q33.133 18.667 32 18.667t-1.9.766q-.767.767-.767 1.9 0 1.134.767 1.9.767.767 1.9.767t1.9-.767Z"/>
</svg>
