<svg xmlns="http://www.w3.org/2000/svg" style="display:none">
<symbol id="architecture" viewBox="0 -960 960 960"><path d="m270-120-10-88 114-314q15 14 32.5 23.5T444-484L334-182l-64 62Zm420 0-64-62-110-302q20-5 37.5-14.5T586-522l114 314-10 88ZM395-555q-35-35-35-85 0-39 22.5-69.5T440-752v-88h80v88q35 12 57.5 42.5T600-640q0 50-35 85t-85 35q-50 0-85-35Zm113.5-56.5Q520-623 520-640t-11.5-28.5Q497-680 480-680t-28.5 11.5Q440-657 440-640t11.5 28.5Q463-600 480-600t28.5-11.5Z"/></symbol>
<symbol id="arrow_forward" viewBox="0 -960 960 960"><path d="M647-440H160v-80h487L423-744l57-56 320 320-320 320-57-56 224-224Z"/></symbol>
<symbol id="call" viewBox="0 -960 960 960"><path d="M798-120q-125 0-247-54.5T329-329Q229-429 174.5-551T120-798q0-18 12-30t30-12h162q14 0 25 9.5t13 22.5l26 140q2 16-1 27t-11 19l-97 98q20 37 47.5 71.5T387-386q31 31 65 57.5t72 48.5l94-94q9-9 23.5-13.5T670-390l138 28q14 4 23 14.5t9 23.5v162q0 18-12 30t-30 12ZM241-600l66-66-17-94h-89q5 41 14 81t26 79Zm358 358q39 17 79.5 27t81.5 13v-88l-94-19-67 67ZM241-600Zm358 358Z"/></symbol>
<symbol id="check_circle" viewBox="0 -960 960 960"><path d="m424-296 282-282-56-56-226 226-114-114-56 56 170 170Zm56 216q-83 0-156-31.5T197-197q-54-54-85.5-127T80-480q0-83 31.5-156T197-763q54-54 127-85.5T480-880q83 0 156 31.5T763-763q54 54 85.5 127T880-480q0 83-31.5 156T763-197q-54 54-127 85.5T480-80Zm0-80q134 0 227-93t93-227q0-134-93-227t-227-93q-134 0-227 93t-93 227q0 134 93 227t227 93Zm0-320Z"/></symbol>
<symbol id="close" viewBox="0 -960 960 960"><path d="m256-200-56-56 224-224-224-224 56-56 224 224 224-224 56 56-224 224 224 224-56 56-224-224-224 224Z"/></symbol>
<symbol id="dark_mode" viewBox="0 -960 960 960"><path d="M480-120q-150 0-255-105T120-480q0-150 105-255t255-105q14 0 27.5 1t26.5 3q-41 29-65.5 75.5T444-660q0 90 63 153t153 63q55 0 101-24.5t75-65.5q2 13 3 26.5t1 27.5q0 150-105 255T480-120Zm0-80q88 0 158-48.5T740-375q-20 5-40 8t-40 3q-123 0-209.5-86.5T364-660q0-20 3-40t8-40q-78 32-126.5 102T200-480q0 116 82 198t198 82Zm-10-270Z"/></symbol>
<symbol id="expand_more" viewBox="0 -960 960 960"><path d="M480-345 240-585l56-56 184 184 184-184 56 56-240 240Z"/></symbol>
<symbol id="light_mode" viewBox="0 -960 960 960"><path d="M565-395q35-35 35-85t-35-85q-35-35-85-35t-85 35q-35 35-35 85t35 85q35 35 85 35t85-35Zm-226.5 56.5Q280-397 280-480t58.5-141.5Q397-680 480-680t141.5 58.5Q680-563 680-480t-58.5 141.5Q563-280 480-280t-141.5-58.5ZM200-440H40v-80h160v80Zm720 0H760v-80h160v80ZM440-760v-160h80v160h-80Zm0 720v-160h80v160h-80ZM256-650l-101-97 57-59 96 100-52 56Zm492 496-97-101 53-55 101 97-57 59Zm-98-550 97-101 59 57-100 96-56-52ZM154-212l101-97 55 53-97 101-59-57Zm326-268Z"/></symbol>
<symbol id="location_on" viewBox="0 -960 960 960"><path d="M536.5-503.5Q560-527 560-560t-23.5-56.5Q513-640 480-640t-56.5 23.5Q400-593 400-560t23.5 56.5Q447-480 480-480t56.5-23.5ZM480-186q122-112 181-203.5T720-552q0-109-69.5-178.5T480-800q-101 0-170.5 69.5T240-552q0 71 59 162.5T480-186Zm0 106Q319-217 239.5-334.5T160-552q0-150 96.5-239T480-880q127 0 223.5 89T800-552q0 100-79.5 217.5T480-80Zm0-480Z"/></symbol>
<symbol id="mail" viewBox="0 -960 960 960"><path d="M160-160q-33 0-56.5-23.5T80-240v-480q0-33 23.5-56.5T160-800h640q33 0 56.5 23.5T880-720v480q0 33-23.5 56.5T800-160H160Zm320-280L160-640v400h640v-400L480-440Zm0-80 320-200H160l320 200ZM160-640v-80 480-400Z"/></symbol>
<symbol id="menu" viewBox="0 -960 960 960"><path d="M120-240v-80h720v80H120Zm0-200v-80h720v80H120Zm0-200v-80h720v80H120Z"/></symbol>
<symbol id="star" viewBox="0 -960 960 960"><path d="m233-120 65-281L80-590l288-25 112-265 112 265 288 25-218 189 65 281-247-149-247 149Z"/></symbol>
<symbol id="verified_user" viewBox="0 -960 960 960"><path d="m438-338 226-226-57-57-169 169-84-84-57 57 141 141Zm42 258q-139-35-229.5-159.5T160-516v-244l320-120 320 120v244q0 152-90.5 276.5T480-80Zm0-84q104-33 172-132t68-220v-189l-240-90-240 90v189q0 121 68 220t172 132Zm0-316Z"/></symbol>
</svg>
